<svg width="41" height="41" viewBox="0 0 41 41" fill="none" xmlns="http://www.w3.org/2000/svg">
<g clip-path="url(#clip0)">
<path d="M40.1552 14.6737C40.1421 14.6289 40.1305 14.5833 40.117 14.5385C40.0457 14.3033 39.9673 14.0715 39.8874 13.8398C39.8568 13.75 39.8286 13.6596 39.7967 13.5705C39.7254 13.3712 39.6472 13.1757 39.5699 12.9793C39.5236 12.8623 39.4801 12.7441 39.4317 12.6277C39.3572 12.4488 39.2768 12.273 39.1974 12.0966C39.1398 11.9689 39.0848 11.8401 39.0247 11.7137C38.9396 11.5348 38.8486 11.3596 38.7588 11.1834C38.6984 11.0658 38.6412 10.947 38.5786 10.8306C38.4695 10.627 38.3537 10.4274 38.238 10.2278C38.1898 10.1449 38.1442 10.0604 38.0947 9.97817C37.9364 9.71383 37.7716 9.45422 37.6017 9.19805C37.5926 9.18428 37.5845 9.17026 37.5755 9.15681C35.8938 6.63027 33.6673 4.49883 31.0622 2.92946C31.0084 2.89694 30.9531 2.86715 30.899 2.83496C30.67 2.69987 30.4398 2.56694 30.2048 2.4405C30.1297 2.39982 30.0529 2.3629 29.9768 2.32318C29.7582 2.20899 29.5388 2.09576 29.3155 1.98942C29.2433 1.95466 29.1694 1.92367 29.0969 1.88996C28.8642 1.78234 28.6305 1.67631 28.3934 1.57718C28.3462 1.55748 28.2979 1.54026 28.2507 1.52088C27.9832 1.41173 27.7143 1.30603 27.4411 1.20778C27.4377 1.20649 27.4339 1.20561 27.4305 1.20433C25.2743 0.429496 22.952 0.00316042 20.5294 -0.000282942C9.20788 -0.016779 0.0163536 9.148 -0.000222548 20.4697C-0.0164784 31.7914 9.14806 40.9831 20.4701 40.9997C31.7917 41.016 40.9832 31.8511 40.9998 20.5294C41.0026 18.4943 40.7048 16.5302 40.1552 14.6737ZM17.6911 29.5538L17.698 24.7864C17.6989 24.128 17.1784 23.5937 16.535 23.5927L11.41 23.5852C10.7668 23.5846 10.2461 23.05 10.247 22.3916L10.2519 19.0545C10.2529 18.3961 10.7749 17.8635 11.4184 17.8647L16.5434 17.8719C17.1865 17.8728 17.7089 17.3401 17.7098 16.6816L17.7173 11.4374C17.7183 10.7794 18.2406 10.2463 18.884 10.2472L22.1453 10.2519C22.7884 10.2528 23.3092 10.7874 23.3084 11.4455L23.3008 16.6897C23.2999 17.3482 23.8204 17.8824 24.4638 17.8833L29.5888 17.8909C30.2319 17.8918 30.7527 18.4258 30.7518 19.0842L30.7468 22.4212C30.7459 23.0796 30.2238 23.6127 29.5804 23.6117L24.4554 23.6042C23.8123 23.6032 23.2899 24.136 23.289 24.7944L23.2821 29.5618C23.2811 30.2199 22.7588 30.7527 22.1157 30.7517L18.8543 30.7471C18.211 30.7463 17.6902 30.212 17.6911 29.5538Z" fill="#1565C0"/>
</g>
<defs>
<clipPath id="clip0">
<rect width="41" height="41" fill="white"/>
</clipPath>
</defs>
</svg>
