<svg width="20" height="20" viewBox="0 0 20 20" fill="none" xmlns="http://www.w3.org/2000/svg">
<g clip-path="url(#clip0)">
<path d="M19.708 18.3859L14.0718 12.7334C14.3425 12.3908 14.5838 12.0243 14.795 11.6388C14.8016 11.6266 14.807 11.6138 14.8137 11.6014C14.9076 11.4279 14.9965 11.2512 15.0775 11.0699C15.1131 10.9902 15.1421 10.9077 15.1749 10.8269C15.2229 10.7089 15.2732 10.5921 15.3156 10.4712C15.3456 10.3852 15.3688 10.2968 15.3959 10.2097C15.4339 10.0879 15.4741 9.96731 15.5062 9.84293C15.5196 9.79082 15.5283 9.73727 15.5406 9.68469C15.6777 9.10504 15.7559 8.5027 15.7568 7.88157C15.7583 6.82461 15.55 5.81668 15.1738 4.8954C15.1693 4.88473 15.1655 4.87391 15.1611 4.86325C15.1178 4.75864 15.072 4.65559 15.0244 4.55348C15.018 4.53977 15.0122 4.5259 15.0058 4.51231C14.9561 4.40696 14.9035 4.30317 14.8492 4.2004C14.8443 4.1911 14.8399 4.18149 14.8349 4.17219C13.5132 1.69337 10.9045 0.00446063 7.8982 7.51167e-06C7.25867 -0.000890925 6.63828 0.0788356 6.04266 0.222273C6.00621 0.230945 5.96902 0.236609 5.93273 0.245789C5.80086 0.279617 5.67266 0.321843 5.54352 0.362273C5.46406 0.38696 5.38344 0.407546 5.30492 0.434851C5.17484 0.480124 5.04891 0.53364 4.92223 0.585476C4.85043 0.614773 4.77727 0.639929 4.70637 0.671492C4.10828 0.936726 3.54922 1.27395 3.04141 1.67399C2.54363 2.06048 2.09266 2.50688 1.7016 3.00372C1.4307 3.34739 1.18918 3.71493 0.97789 4.10141C0.975781 4.10524 0.974062 4.10918 0.972109 4.11301C0.873008 4.29504 0.780156 4.4809 0.69539 4.67133C0.663828 4.74207 0.638515 4.81508 0.609101 4.88657C0.556797 5.01387 0.502969 5.14028 0.457265 5.27079C0.430273 5.34821 0.409687 5.42766 0.385156 5.50586C0.343984 5.63637 0.301328 5.76579 0.266836 5.89907C0.255234 5.94418 0.247929 5.9904 0.237109 6.03582C0.0971482 6.62141 0.0175779 7.23063 0.0166404 7.85875C0.0103904 12.2061 3.53109 15.7339 7.87539 15.7402C8.53109 15.7411 9.16672 15.6588 9.77563 15.5083C9.79559 15.5032 9.81602 15.5004 9.83586 15.4953C9.98297 15.4577 10.1263 15.4114 10.2699 15.3656C10.3345 15.345 10.4004 15.3284 10.4645 15.3061C10.5955 15.2607 10.7227 15.2067 10.8505 15.1546C10.9226 15.1252 10.9961 15.0997 11.0673 15.0682C11.2176 15.0014 11.3633 14.9262 11.5087 14.8504C11.5533 14.8271 11.5991 14.8074 11.6434 14.7833C12.0263 14.574 12.3907 14.3343 12.7321 14.0662L18.3713 19.7219C18.5537 19.9048 18.7959 19.9996 19.0383 20C19.2777 20.0003 19.5201 19.9062 19.7061 19.7239C20.075 19.356 20.0759 18.7579 19.708 18.3859ZM13.7893 7.87871C13.7875 9.16621 13.3733 10.3555 12.6668 11.3241C12.2975 11.8399 11.8469 12.2893 11.33 12.6601C10.3593 13.3638 9.16574 13.7746 7.87824 13.7727C4.62313 13.768 1.97953 11.1166 1.98426 7.86164C1.98609 6.57399 2.40031 5.38149 3.10668 4.41293C3.47578 3.90036 3.92977 3.4477 4.44355 3.08012C5.4141 2.37641 6.60785 1.96583 7.89535 1.96766C11.1503 1.97235 13.7941 4.6236 13.7893 7.87871Z" fill="#444444"/>
</g>
<defs>
<clipPath id="clip0">
<rect width="20" height="20" fill="white"/>
</clipPath>
</defs>
</svg>
