<svg width="40" height="39" viewBox="0 0 40 39" fill="none" xmlns="http://www.w3.org/2000/svg">
<path d="M8.96789 18.0188C9.71226 18.0188 10.3159 17.4496 10.3159 16.7479C10.3159 16.6193 10.2905 16.4958 10.2523 16.3779L15.7409 11.9197C15.9167 11.9994 16.1136 12.0454 16.3227 12.0454C16.5122 12.0454 16.6919 12.008 16.8558 11.9418L22.4094 16.8368C22.3605 16.9688 22.3294 17.1092 22.3294 17.2563C22.3294 17.9577 22.9334 18.5272 23.6774 18.5272C24.4217 18.5272 25.0254 17.9577 25.0254 17.2563C25.0254 17.0721 24.9827 16.897 24.907 16.7384L30.4911 10.9479C30.6572 11.0158 30.84 11.0538 31.0325 11.0538C31.7765 11.0538 32.3805 10.4844 32.3805 9.78287C32.3805 9.07617 31.7766 8.51193 31.0325 8.51193C30.2881 8.51193 29.6842 9.07617 29.6842 9.78287C29.6842 9.92644 29.7144 10.0634 29.7612 10.1929L24.1069 16.0564C23.972 16.013 23.8292 15.9853 23.6775 15.9853C23.487 15.9853 23.3058 16.023 23.1413 16.0898L17.5896 11.1965C17.6396 11.0638 17.6707 10.9229 17.6707 10.7741C17.6707 10.0727 17.0671 9.50318 16.3227 9.50318C15.5787 9.50318 14.9748 10.0726 14.9748 10.7741C14.9748 10.9045 15.0004 11.0286 15.0398 11.1473L9.55273 15.6041C9.37601 15.5235 9.17828 15.4769 8.96796 15.4769C8.22398 15.4769 7.62 16.0463 7.62 16.7479C7.61992 17.4496 8.2239 18.0188 8.96789 18.0188Z" fill="#C8C8C8"/>
<path d="M15.6271 16.1838V16.1683L8.9679 21.5775V25.5483H15.6271V19.8793L15.6354 16.1773L15.6271 16.1838Z" fill="#C8C8C8"/>
<path d="M16.9877 16.1784V16.1894L16.9752 16.1784V25.5482H23.0036V21.4912L19.4238 18.3364L16.9877 16.1784Z" fill="#C8C8C8"/>
<path d="M31.0324 14.4776V14.46L24.3515 21.3896V25.5482H31.0324V19.1755L31.0416 14.4681L31.0324 14.4776Z" fill="#C8C8C8"/>
<path d="M36.875 2.41156H3.125C1.39922 2.41156 0 3.73082 0 5.35799V27.7508C0 29.3783 1.39922 30.6973 3.125 30.6973H17.0468H17.0767V32.9883C17.0767 34.0103 16.2441 34.8612 15.1638 34.9435L9.32273 35.3882C9.1607 35.4006 9.03555 35.5283 9.03555 35.6818V36.494C9.03555 36.6566 9.17539 36.7884 9.34773 36.7884H30.6521C30.8248 36.7884 30.9646 36.6566 30.9646 36.494V35.6818C30.9646 35.5284 30.8395 35.4006 30.6774 35.3882L24.8363 34.9435C23.756 34.8611 22.9234 34.0103 22.9234 32.9883V30.6973H36.875C38.6011 30.6973 40 29.3783 40 27.7508V5.35799C40 3.7309 38.6011 2.41156 36.875 2.41156ZM36.875 5.35799V27.7508H3.21563H3.125V5.35799H36.7847H36.875Z" fill="#C8C8C8"/>
</svg>
