<svg width="35" height="35" viewBox="0 0 35 35" fill="none" xmlns="http://www.w3.org/2000/svg">
<path d="M24.5577 15.3128H20.457C20.032 15.3128 19.6874 14.968 19.6874 14.5432V10.4422C19.6874 10.0173 19.3429 9.67285 18.9179 9.67285H16.082C15.657 9.67285 15.3124 10.0173 15.3124 10.4422V14.5432C15.3124 14.968 14.9679 15.3128 14.5429 15.3128H10.4422C10.0171 15.3128 9.67261 15.6572 9.67261 16.0824V18.9182C9.67261 19.343 10.0171 19.6878 10.4422 19.6878H14.5429C14.9679 19.6878 15.3124 20.0322 15.3124 20.4574V24.5578C15.3124 24.983 15.657 25.3274 16.082 25.3274H18.9179C19.3429 25.3274 19.6874 24.983 19.6874 24.5578V20.4574C19.6874 20.0322 20.032 19.6878 20.457 19.6878H24.5577C24.9827 19.6878 25.3273 19.343 25.3273 18.9182V16.0824C25.3273 15.6572 24.9827 15.3128 24.5577 15.3128Z" fill="#DF5656"/>
<path d="M17.5 0C7.83487 0 0 7.83515 0 17.5C0 27.1651 7.83487 35 17.5 35C27.1649 35 35 27.1651 35 17.5C35 7.83515 27.1649 0 17.5 0ZM17.5 30.625C10.2627 30.625 4.375 24.7373 4.375 17.5C4.375 10.263 10.2627 4.375 17.5 4.375C24.737 4.375 30.625 10.263 30.625 17.5C30.625 24.7373 24.737 30.625 17.5 30.625Z" fill="#DF5656"/>
</svg>
