<svg width="48" height="47" viewBox="0 0 48 47" fill="none" xmlns="http://www.w3.org/2000/svg">
<g clip-path="url(#clip0)" filter="url(#filter0_d)">
<path d="M43.4161 35.4705L32.1437 24.8114C32.6849 24.1654 33.1676 23.4743 33.5899 22.7473C33.6033 22.7242 33.614 22.7001 33.6274 22.6768C33.8152 22.3496 33.993 22.0164 34.1549 21.6745C34.2262 21.5242 34.2841 21.3687 34.3498 21.2163C34.4459 20.9938 34.5465 20.7736 34.6312 20.5455C34.6912 20.3833 34.7376 20.2166 34.7919 20.0525C34.8678 19.8228 34.9483 19.5953 35.0123 19.3608C35.0392 19.2625 35.0566 19.1615 35.0812 19.0624C35.3554 17.9693 35.5118 16.8335 35.5136 15.6622C35.5166 13.6691 35.1001 11.7684 34.3476 10.0311C34.3387 10.011 34.3311 9.99062 34.3223 9.97051C34.2356 9.77324 34.1439 9.57893 34.0487 9.38638C34.0359 9.36052 34.0244 9.33437 34.0116 9.30874C33.9121 9.11008 33.807 8.91436 33.6984 8.72056C33.6886 8.70303 33.6798 8.68491 33.6698 8.66737C31.0265 3.99301 25.8091 0.808216 19.7964 0.799819C18.5173 0.798125 17.2766 0.948466 16.0853 1.21895C16.0124 1.2353 15.938 1.24598 15.8655 1.26329C15.6017 1.32708 15.3453 1.40671 15.087 1.48295C14.9281 1.5295 14.7669 1.56832 14.6098 1.61981C14.3497 1.70518 14.0978 1.8061 13.8445 1.90385C13.7009 1.95909 13.5545 2.00653 13.4127 2.06605C12.2166 2.5662 11.0984 3.20212 10.0828 3.95648C9.08727 4.68528 8.18531 5.52707 7.4032 6.46396C6.86141 7.11203 6.37836 7.8051 5.95578 8.5339C5.95156 8.54112 5.94812 8.54856 5.94422 8.55578C5.74602 8.89904 5.56031 9.24952 5.39078 9.60861C5.32766 9.74201 5.27703 9.87968 5.2182 10.0145C5.11359 10.2545 5.00594 10.4929 4.91453 10.739C4.86055 10.885 4.81937 11.0348 4.77031 11.1823C4.68797 11.4284 4.60266 11.6724 4.53367 11.9238C4.51047 12.0088 4.49586 12.096 4.47422 12.1817C4.1943 13.2859 4.03516 14.4347 4.03328 15.6192C4.02078 23.817 11.0622 30.4696 19.7508 30.4813C21.0622 30.483 22.3334 30.3278 23.5513 30.044C23.5912 30.0345 23.632 30.0291 23.6717 30.0196C23.9659 29.9486 24.2526 29.8613 24.5398 29.7749C24.6691 29.7361 24.8009 29.7048 24.9289 29.6628C25.1911 29.5772 25.4454 29.4754 25.7009 29.3771C25.8452 29.3216 25.9922 29.2736 26.1345 29.2141C26.4352 29.0881 26.7266 28.9464 27.0175 28.8035C27.1066 28.7595 27.1983 28.7224 27.2867 28.6769C28.0527 28.2823 28.7814 27.8303 29.4641 27.3246L40.7427 37.9897C41.1073 38.3347 41.5919 38.5135 42.0766 38.514C42.5553 38.5146 43.0402 38.3373 43.4121 37.9934C44.1501 37.2997 44.1519 36.1719 43.4161 35.4705ZM31.5787 15.6568C31.575 18.0847 30.7466 20.3274 29.3336 22.1538C28.595 23.1265 27.6938 23.974 26.6601 24.6732C24.7187 26.0002 22.3315 26.7747 19.7565 26.7713C13.2463 26.7624 7.95906 21.7626 7.96852 15.6246C7.97219 13.1965 8.80062 10.9478 10.2134 9.12135C10.9516 8.15477 11.8595 7.30119 12.8871 6.60804C14.8282 5.28104 17.2157 4.5068 19.7907 4.51026C26.3006 4.5191 31.5881 9.5186 31.5787 15.6568Z" fill="#C8C8C8"/>
</g>
<defs>
<filter id="filter0_d" x="0" y="0.799988" width="48" height="45.7143" filterUnits="userSpaceOnUse" color-interpolation-filters="sRGB">
<feFlood flood-opacity="0" result="BackgroundImageFix"/>
<feColorMatrix in="SourceAlpha" type="matrix" values="0 0 0 0 0 0 0 0 0 0 0 0 0 0 0 0 0 0 127 0"/>
<feOffset dy="4"/>
<feGaussianBlur stdDeviation="2"/>
<feColorMatrix type="matrix" values="0 0 0 0 0 0 0 0 0 0 0 0 0 0 0 0 0 0 0.25 0"/>
<feBlend mode="normal" in2="BackgroundImageFix" result="effect1_dropShadow"/>
<feBlend mode="normal" in="SourceGraphic" in2="effect1_dropShadow" result="shape"/>
</filter>
<clipPath id="clip0">
<rect width="40" height="37.7143" fill="white" transform="translate(4 0.799988)"/>
</clipPath>
</defs>
</svg>
