<svg width="36" height="36" viewBox="0 0 36 36" fill="none" xmlns="http://www.w3.org/2000/svg">
<g clip-path="url(#clip0)">
<path d="M34.875 20.6708C35.51 20.6213 36 20.0907 36 19.4546V16.5454C36 15.9081 35.51 15.3786 34.875 15.3281L31.0199 15.027C30.7749 15.0083 30.564 14.8546 30.4695 14.6271L29.2017 11.5674C29.1072 11.3411 29.1468 11.0818 29.3072 10.8961L31.8208 7.95614C32.2339 7.47162 32.2076 6.75091 31.756 6.30049L29.6994 4.24385C29.2489 3.79343 28.5271 3.76481 28.0437 4.17902L25.1037 6.6927C24.918 6.85202 24.6577 6.89266 24.4325 6.79929L21.3717 5.53036C21.1454 5.43698 20.9905 5.22274 20.9707 4.97995L20.6708 1.12591C20.6213 0.490008 20.0918 0 19.4546 0H16.5454C15.9082 0 15.3787 0.490008 15.3293 1.12613L15.0282 4.98016C15.0095 5.22408 14.8546 5.4372 14.6283 5.53057L11.5675 6.7995C11.3412 6.89288 11.082 6.85223 10.8951 6.69291L7.95628 4.17923C7.47288 3.76502 6.75218 3.79364 6.30063 4.24406L4.24399 6.3007C3.79357 6.75113 3.76608 7.47183 4.17916 7.95635L6.69284 10.8963C6.85104 11.082 6.8928 11.3413 6.7983 11.5676L5.5305 14.6273C5.43818 14.8547 5.22401 15.0086 4.98115 15.0273L1.125 15.3281C0.490008 15.3787 0 15.9082 0 16.5454V19.4535C0 20.0907 0.490008 20.6213 1.125 20.6708L4.98122 20.9708C5.22401 20.9905 5.43825 21.1454 5.53057 21.3718L6.79838 24.4315C6.89288 24.6578 6.85111 24.9182 6.69291 25.1039L4.17923 28.0439C3.76615 28.5273 3.79364 29.248 4.24406 29.6995L6.3007 31.7561C6.75225 32.2066 7.47295 32.2341 7.95635 31.8199L10.8952 29.3062C11.082 29.148 11.3413 29.1062 11.5676 29.2007L14.6284 30.4685C14.8547 30.563 15.0096 30.775 15.0283 31.02L15.3293 34.8741C15.3787 35.5091 15.9083 36.0002 16.5455 36.0002H19.4547C20.0919 36.0002 20.6215 35.5091 20.6709 34.8741L20.9708 31.02C20.9906 30.7751 21.1455 30.563 21.3718 30.4685L24.4326 29.2007C24.6578 29.1062 24.9193 29.148 25.1039 29.3062L28.0439 31.8199C28.5273 32.2341 29.2491 32.2066 29.6995 31.7561L31.7561 29.6995C32.2077 29.248 32.2341 28.5273 31.821 28.0439L29.3073 25.1039C29.1491 24.9182 29.1073 24.6578 29.2018 24.4315L30.4696 21.3718C30.5641 21.1454 30.7751 20.9905 31.02 20.9708L34.875 20.6708ZM18 24.0832C16.3751 24.0832 14.8469 23.4503 13.6977 22.3023C12.5485 21.152 11.9157 19.6249 11.9157 17.9989C11.9157 16.3741 12.5485 14.8459 13.6977 13.6978C14.8469 12.5475 16.3751 11.9158 18 11.9158C19.626 11.9158 21.1531 12.5475 22.3023 13.6978C23.4515 14.8459 24.0843 16.3741 24.0843 17.9989C24.0843 19.6249 23.4515 21.152 22.3023 22.3023C21.1531 23.4503 19.626 24.0832 18 24.0832Z" fill="#4B4B4B"/>
</g>
<defs>
<clipPath id="clip0">
<rect width="36" height="36" fill="white"/>
</clipPath>
</defs>
</svg>
